<svg xmlns="http://www.w3.org/2000/svg" viewBox="0 0 100 100">
	<!-- All four elements: earth circle, fire symbol, water fill, air border. -->
	<circle cx="50" cy="50" r="48" fill="#7c4a1e" />
	<circle cx="50" cy="50" r="46" fill="none" stroke="#5d3a1a" stroke-width="4" />
	<g transform="translate(50 52) scale(0.72) translate(-50 -50)">
		<path
			fill="#2670c9"
			stroke="#ffffff"
			stroke-width="6"
			stroke-linejoin="round"
			d="M50 6 C55 18 67 24 71 36 C74 45 72 52 66 57 C75 54 81 46 82 36 C89 47 92 59 88 69 C82 84 67 93 50 93 C33 93 18 84 12 69 C8 59 11 47 18 36 C19 46 25 54 34 57 C28 52 26 45 29 36 C33 24 45 18 50 6 Z"
		/>
		<path
			fill="none"
			stroke="#ffffff"
			stroke-width="6"
			stroke-linecap="round"
			d="M62 64 A12 12 0 0 1 38 64 A9 9 0 0 1 56 64 A6 6 0 0 1 44 64 A4 4 0 0 1 52 64"
		/>
	</g>
</svg>
